<svg width="594" height="218" viewBox="0 0 594 218" fill="none" xmlns="http://www.w3.org/2000/svg">
<g clip-path="url(#clip0_27_5983)">
<path d="M593.5 109.701C593.5 169.188 545.27 217.417 485.783 217.417C418.436 217.417 351.128 163.579 297.25 109.701C243.372 55.8229 176.064 1.98438 108.716 1.98438C49.2295 1.98438 1 50.2139 1 109.701C1 169.188 49.2295 217.417 108.716 217.417C176.064 217.417 243.372 163.579 297.25 109.701C351.128 55.8229 418.436 1.98438 485.783 1.98438C545.27 1.98438 593.5 50.2139 593.5 109.701Z" stroke="url(#paint0_linear_27_5983)" stroke-miterlimit="10" stroke-linecap="square"/>
<g opacity="0.6">
<path d="M25.6123 88.4924H30.8903C31.7743 88.4924 32.6063 88.5964 33.3863 88.8044C34.1836 88.9951 34.877 89.3157 35.4663 89.7664C36.0556 90.1997 36.5236 90.7631 36.8703 91.4564C37.217 92.1324 37.3903 92.9557 37.3903 93.9264V94.0304C37.3903 95.0184 37.217 95.8591 36.8703 96.5524C36.5236 97.2457 36.0556 97.8177 35.4663 98.2684C34.877 98.7017 34.1836 99.0224 33.3863 99.2304C32.6063 99.4211 31.7743 99.5164 30.8903 99.5164H27.8743V107.082H25.6123V88.4924ZM31.0463 97.7224C32.381 97.7224 33.395 97.4104 34.0883 96.7864C34.7816 96.1451 35.1283 95.2264 35.1283 94.0304V93.9264C35.1283 92.6091 34.7643 91.6817 34.0363 91.1444C33.3083 90.5897 32.3116 90.3124 31.0463 90.3124H27.8743V97.7224H31.0463Z" fill="white"/>
<path d="M44.147 107.316C43.523 107.316 42.9336 107.238 42.379 107.082C41.8243 106.926 41.339 106.683 40.923 106.354C40.5243 106.025 40.2036 105.609 39.961 105.106C39.7356 104.603 39.623 104.005 39.623 103.312C39.623 102.532 39.8136 101.873 40.195 101.336C40.5763 100.799 41.079 100.366 41.703 100.036C42.3443 99.7071 43.0723 99.4731 43.887 99.3344C44.719 99.1784 45.5683 99.1004 46.435 99.1004H48.385V98.1124C48.385 97.0204 48.1596 96.2404 47.709 95.7724C47.2583 95.2871 46.513 95.0444 45.473 95.0444C43.601 95.0444 42.561 95.8591 42.353 97.4884H40.195C40.2643 96.7084 40.455 96.0497 40.767 95.5124C41.0963 94.9751 41.5036 94.5417 41.989 94.2124C42.4916 93.8657 43.0463 93.6231 43.653 93.4844C44.277 93.3284 44.9183 93.2504 45.577 93.2504C46.2183 93.2504 46.8423 93.3284 47.449 93.4844C48.0556 93.6231 48.5843 93.8831 49.035 94.2644C49.4856 94.6284 49.8496 95.1224 50.127 95.7464C50.4043 96.3704 50.543 97.1591 50.543 98.1124V107.082H48.385V105.366C47.8823 106.007 47.3016 106.493 46.643 106.822C45.9843 107.151 45.1523 107.316 44.147 107.316ZM44.355 105.6C44.927 105.6 45.4556 105.531 45.941 105.392C46.4436 105.236 46.8683 105.019 47.215 104.742C47.579 104.465 47.865 104.127 48.073 103.728C48.281 103.312 48.385 102.844 48.385 102.324V100.634H46.513C45.837 100.634 45.2043 100.686 44.615 100.79C44.043 100.877 43.5403 101.024 43.107 101.232C42.691 101.44 42.3616 101.717 42.119 102.064C41.8936 102.393 41.781 102.809 41.781 103.312C41.781 104.023 41.9716 104.586 42.353 105.002C42.7343 105.401 43.4016 105.6 44.355 105.6Z" fill="white"/>
<path d="M59.2988 107.316C57.6694 107.316 56.3868 106.935 55.4508 106.172C54.5321 105.392 54.0381 104.3 53.9688 102.896H56.0748C56.1614 103.711 56.4387 104.352 56.9067 104.82C57.392 105.288 58.1808 105.522 59.2728 105.522C60.3128 105.522 61.0668 105.349 61.5348 105.002C62.0028 104.638 62.2368 104.092 62.2368 103.364C62.2368 102.653 61.9681 102.142 61.4308 101.83C60.9108 101.518 60.1221 101.267 59.0648 101.076C58.1808 100.92 57.4354 100.738 56.8288 100.53C56.2221 100.305 55.7367 100.036 55.3727 99.7244C55.0087 99.4124 54.74 99.0397 54.5667 98.6064C54.4107 98.1731 54.3328 97.6617 54.3328 97.0724C54.3328 96.4484 54.4714 95.9024 54.7488 95.4344C55.0261 94.9491 55.3814 94.5504 55.8148 94.2384C56.2654 93.9091 56.7594 93.6664 57.2968 93.5104C57.8514 93.3371 58.3973 93.2504 58.9347 93.2504C59.5413 93.2504 60.1221 93.3197 60.6768 93.4584C61.2313 93.5797 61.7254 93.7964 62.1588 94.1084C62.6094 94.4204 62.9821 94.8277 63.2768 95.3304C63.5714 95.8331 63.7621 96.4484 63.8488 97.1764H61.7688C61.6128 96.4311 61.3093 95.8937 60.8587 95.5644C60.4253 95.2177 59.7754 95.0444 58.9088 95.0444C58.1288 95.0444 57.5048 95.2264 57.0368 95.5904C56.5688 95.9371 56.3348 96.4051 56.3348 96.9944C56.3348 97.3064 56.3781 97.5751 56.4648 97.8004C56.5688 98.0084 56.7421 98.1991 56.9848 98.3724C57.2274 98.5284 57.5481 98.6757 57.9468 98.8144C58.3628 98.9357 58.8828 99.0484 59.5068 99.1524C60.2001 99.2911 60.8414 99.4471 61.4308 99.6204C62.0201 99.7764 62.5228 100.002 62.9388 100.296C63.3721 100.574 63.7014 100.946 63.9268 101.414C64.1694 101.865 64.2908 102.454 64.2908 103.182C64.2908 104.43 63.8748 105.435 63.0428 106.198C62.2108 106.943 60.9628 107.316 59.2988 107.316Z" fill="white"/>
<path d="M72.0956 107.316C70.4663 107.316 69.1836 106.935 68.2476 106.172C67.329 105.392 66.835 104.3 66.7656 102.896H68.8716C68.9583 103.711 69.2356 104.352 69.7036 104.82C70.189 105.288 70.9776 105.522 72.0696 105.522C73.1096 105.522 73.8636 105.349 74.3316 105.002C74.7996 104.638 75.0336 104.092 75.0336 103.364C75.0336 102.653 74.765 102.142 74.2276 101.83C73.7076 101.518 72.919 101.267 71.8616 101.076C70.9776 100.92 70.2323 100.738 69.6256 100.53C69.019 100.305 68.5336 100.036 68.1696 99.7244C67.8056 99.4124 67.537 99.0397 67.3636 98.6064C67.2076 98.1731 67.1296 97.6617 67.1296 97.0724C67.1296 96.4484 67.2683 95.9024 67.5456 95.4344C67.823 94.9491 68.1783 94.5504 68.6116 94.2384C69.0623 93.9091 69.5563 93.6664 70.0936 93.5104C70.6483 93.3371 71.1943 93.2504 71.7316 93.2504C72.3383 93.2504 72.919 93.3197 73.4736 93.4584C74.0283 93.5797 74.5223 93.7964 74.9556 94.1084C75.4063 94.4204 75.779 94.8277 76.0736 95.3304C76.3683 95.8331 76.559 96.4484 76.6456 97.1764H74.5656C74.4096 96.4311 74.1063 95.8937 73.6556 95.5644C73.2223 95.2177 72.5723 95.0444 71.7056 95.0444C70.9256 95.0444 70.3016 95.2264 69.8336 95.5904C69.3656 95.9371 69.1316 96.4051 69.1316 96.9944C69.1316 97.3064 69.175 97.5751 69.2616 97.8004C69.3656 98.0084 69.539 98.1991 69.7816 98.3724C70.0243 98.5284 70.345 98.6757 70.7436 98.8144C71.1596 98.9357 71.6796 99.0484 72.3036 99.1524C72.997 99.2911 73.6383 99.4471 74.2276 99.6204C74.817 99.7764 75.3196 100.002 75.7356 100.296C76.169 100.574 76.4983 100.946 76.7236 101.414C76.9663 101.865 77.0876 102.454 77.0876 103.182C77.0876 104.43 76.6716 105.435 75.8396 106.198C75.0076 106.943 73.7596 107.316 72.0956 107.316Z" fill="white"/>
<path d="M80.7328 93.4844H82.8908V107.082H80.7328V93.4844ZM81.7728 90.6504C81.3741 90.6504 81.0361 90.5117 80.7588 90.2344C80.4815 89.9571 80.3428 89.6191 80.3428 89.2204C80.3428 88.8217 80.4815 88.4837 80.7588 88.2064C81.0361 87.9291 81.3741 87.7904 81.7728 87.7904C82.1715 87.7904 82.5095 87.9291 82.7868 88.2064C83.0641 88.4837 83.2028 88.8217 83.2028 89.2204C83.2028 89.6191 83.0641 89.9571 82.7868 90.2344C82.5095 90.5117 82.1715 90.6504 81.7728 90.6504Z" fill="white"/>
<path d="M93.2806 105.522C93.9566 105.522 94.5719 105.401 95.1266 105.158C95.6812 104.915 96.1492 104.569 96.5306 104.118C96.9119 103.667 97.2065 103.13 97.4145 102.506C97.6225 101.865 97.7265 101.163 97.7265 100.4V100.218C97.7265 99.4384 97.6225 98.7277 97.4145 98.0864C97.2065 97.4451 96.9032 96.8991 96.5045 96.4484C96.1232 95.9977 95.6552 95.6511 95.1006 95.4084C94.5632 95.1657 93.9566 95.0444 93.2806 95.0444C92.6046 95.0444 91.9892 95.1657 91.4345 95.4084C90.8799 95.6511 90.4119 95.9977 90.0306 96.4484C89.6492 96.8991 89.3545 97.4451 89.1465 98.0864C88.9385 98.7104 88.8345 99.4124 88.8345 100.192V100.4C88.8345 101.96 89.2245 103.208 90.0045 104.144C90.8019 105.063 91.8939 105.522 93.2806 105.522ZM93.2545 107.316C92.2839 107.316 91.3912 107.143 90.5765 106.796C89.7619 106.449 89.0599 105.973 88.4705 105.366C87.8812 104.742 87.4219 104.005 87.0926 103.156C86.7632 102.307 86.5986 101.388 86.5986 100.4V100.192C86.5986 99.1697 86.7632 98.2337 87.0926 97.3844C87.4392 96.5351 87.9072 95.8071 88.4965 95.2004C89.0859 94.5764 89.7879 94.0997 90.6025 93.7704C91.4172 93.4237 92.3099 93.2504 93.2806 93.2504C94.2339 93.2504 95.1179 93.4237 95.9326 93.7704C96.7646 94.0997 97.4752 94.5677 98.0645 95.1744C98.6539 95.7811 99.1132 96.5091 99.4425 97.3584C99.7892 98.2077 99.9625 99.1437 99.9625 100.166V100.374C99.9625 101.397 99.7892 102.341 99.4425 103.208C99.1132 104.057 98.6452 104.785 98.0385 105.392C97.4492 105.999 96.7472 106.475 95.9326 106.822C95.1179 107.151 94.2252 107.316 93.2545 107.316Z" fill="white"/>
<path d="M103.634 93.4844H105.792V95.6424C106.104 95.0011 106.624 94.4464 107.352 93.9784C108.097 93.4931 109.033 93.2504 110.16 93.2504C110.853 93.2504 111.494 93.3544 112.084 93.5624C112.673 93.7531 113.176 94.0737 113.592 94.5244C114.025 94.9577 114.354 95.5211 114.58 96.2144C114.822 96.9077 114.944 97.7484 114.944 98.7364V107.082H112.786V98.5804C112.786 97.3844 112.526 96.5091 112.006 95.9544C111.486 95.3997 110.68 95.1224 109.588 95.1224C109.085 95.1224 108.6 95.2004 108.132 95.3564C107.681 95.5124 107.282 95.7464 106.936 96.0584C106.589 96.3704 106.312 96.7604 106.104 97.2284C105.896 97.6964 105.792 98.2337 105.792 98.8404V107.082H103.634V93.4844Z" fill="white"/>
<path d="M126.436 93.4844H128.594V107.082H126.436V93.4844ZM127.476 90.6504C127.077 90.6504 126.739 90.5117 126.462 90.2344C126.184 89.9571 126.046 89.6191 126.046 89.2204C126.046 88.8217 126.184 88.4837 126.462 88.2064C126.739 87.9291 127.077 87.7904 127.476 87.7904C127.874 87.7904 128.212 87.9291 128.49 88.2064C128.767 88.4837 128.906 88.8217 128.906 89.2204C128.906 89.6191 128.767 89.9571 128.49 90.2344C128.212 90.5117 127.874 90.6504 127.476 90.6504Z" fill="white"/>
<path d="M133.315 93.4844H135.473V95.6424C135.785 95.0011 136.305 94.4464 137.033 93.9784C137.779 93.4931 138.715 93.2504 139.841 93.2504C140.535 93.2504 141.176 93.3544 141.765 93.5624C142.355 93.7531 142.857 94.0737 143.273 94.5244C143.707 94.9577 144.036 95.5211 144.261 96.2144C144.504 96.9077 144.625 97.7484 144.625 98.7364V107.082H142.467V98.5804C142.467 97.3844 142.207 96.5091 141.687 95.9544C141.167 95.3997 140.361 95.1224 139.269 95.1224C138.767 95.1224 138.281 95.2004 137.813 95.3564C137.363 95.5124 136.964 95.7464 136.617 96.0584C136.271 96.3704 135.993 96.7604 135.785 97.2284C135.577 97.6964 135.473 98.2337 135.473 98.8404V107.082H133.315V93.4844Z" fill="white"/>
<path d="M160.199 107.264C158.951 107.264 158.024 106.935 157.417 106.276C156.828 105.617 156.533 104.751 156.533 103.676V95.3044H154.583V93.4844H156.533V90.3904H158.691V93.4844H161.863V95.3044H158.691V103.468C158.691 104.785 159.255 105.444 160.381 105.444C160.728 105.444 161.031 105.418 161.291 105.366C161.551 105.314 161.803 105.245 162.045 105.158V106.978C161.82 107.065 161.569 107.134 161.291 107.186C161.014 107.238 160.65 107.264 160.199 107.264Z" fill="white"/>
<path d="M165.612 86.9844H167.77V95.6424C168.082 95.0011 168.602 94.4464 169.33 93.9784C170.076 93.4931 171.012 93.2504 172.138 93.2504C172.832 93.2504 173.473 93.3544 174.062 93.5624C174.652 93.7531 175.154 94.0737 175.57 94.5244C176.004 94.9577 176.333 95.5211 176.558 96.2144C176.801 96.9077 176.922 97.7484 176.922 98.7364V107.082H174.764V98.5804C174.764 97.3844 174.504 96.5091 173.984 95.9544C173.464 95.3997 172.658 95.1224 171.566 95.1224C171.064 95.1224 170.578 95.2004 170.11 95.3564C169.66 95.5124 169.261 95.7464 168.914 96.0584C168.568 96.3704 168.29 96.7604 168.082 97.2284C167.874 97.6964 167.77 98.2337 167.77 98.8404V107.082H165.612V86.9844Z" fill="white"/>
<path d="M187.045 107.316C186.075 107.316 185.191 107.151 184.393 106.822C183.596 106.493 182.903 106.033 182.313 105.444C181.724 104.837 181.265 104.109 180.935 103.26C180.623 102.411 180.467 101.466 180.467 100.426V100.218C180.467 99.1957 180.623 98.2597 180.935 97.4104C181.247 96.5437 181.681 95.8071 182.235 95.2004C182.807 94.5764 183.483 94.0997 184.263 93.7704C185.043 93.4237 185.901 93.2504 186.837 93.2504C187.617 93.2504 188.371 93.3804 189.099 93.6404C189.845 93.8831 190.503 94.2731 191.075 94.8104C191.647 95.3477 192.098 96.0497 192.427 96.9164C192.774 97.7657 192.947 98.7971 192.947 100.01V100.712H182.703C182.755 102.272 183.145 103.468 183.873 104.3C184.601 105.115 185.667 105.522 187.071 105.522C189.203 105.522 190.408 104.733 190.685 103.156H192.843C192.601 104.525 191.959 105.565 190.919 106.276C189.879 106.969 188.588 107.316 187.045 107.316ZM190.737 98.9704C190.633 97.5664 190.235 96.5611 189.541 95.9544C188.865 95.3477 187.964 95.0444 186.837 95.0444C185.728 95.0444 184.818 95.3997 184.107 96.1104C183.414 96.8037 182.972 97.7571 182.781 98.9704H190.737Z" fill="white"/>
<path d="M203.444 93.4844H205.602V95.6424C205.914 95.0011 206.434 94.4464 207.162 93.9784C207.908 93.4931 208.844 93.2504 209.97 93.2504C210.664 93.2504 211.305 93.3544 211.894 93.5624C212.484 93.7531 212.986 94.0737 213.402 94.5244C213.836 94.9577 214.165 95.5211 214.39 96.2144C214.633 96.9077 214.754 97.7484 214.754 98.7364V107.082H212.596V98.5804C212.596 97.3844 212.336 96.5091 211.816 95.9544C211.296 95.3997 210.49 95.1224 209.398 95.1224C208.896 95.1224 208.41 95.2004 207.942 95.3564C207.492 95.5124 207.093 95.7464 206.746 96.0584C206.4 96.3704 206.122 96.7604 205.914 97.2284C205.706 97.6964 205.602 98.2337 205.602 98.8404V107.082H203.444V93.4844Z" fill="white"/>
<path d="M224.877 107.316C223.907 107.316 223.023 107.151 222.225 106.822C221.428 106.493 220.735 106.033 220.145 105.444C219.556 104.837 219.097 104.109 218.767 103.26C218.455 102.411 218.299 101.466 218.299 100.426V100.218C218.299 99.1957 218.455 98.2597 218.767 97.4104C219.079 96.5437 219.513 95.8071 220.067 95.2004C220.639 94.5764 221.315 94.0997 222.095 93.7704C222.875 93.4237 223.733 93.2504 224.669 93.2504C225.449 93.2504 226.203 93.3804 226.931 93.6404C227.677 93.8831 228.335 94.2731 228.907 94.8104C229.479 95.3477 229.93 96.0497 230.259 96.9164C230.606 97.7657 230.779 98.7971 230.779 100.01V100.712H220.535C220.587 102.272 220.977 103.468 221.705 104.3C222.433 105.115 223.499 105.522 224.903 105.522C227.035 105.522 228.24 104.733 228.517 103.156H230.675C230.433 104.525 229.791 105.565 228.751 106.276C227.711 106.969 226.42 107.316 224.877 107.316ZM228.569 98.9704C228.465 97.5664 228.067 96.5611 227.373 95.9544C226.697 95.3477 225.796 95.0444 224.669 95.0444C223.56 95.0444 222.65 95.3997 221.939 96.1104C221.246 96.8037 220.804 97.7571 220.613 98.9704H228.569Z" fill="white"/>
<path d="M232.812 93.4844H235.152L238.324 104.43L241.626 93.4844H243.499L246.592 104.43L249.79 93.4844H252.001L247.762 107.082H245.37L242.536 96.8904L239.365 107.082H236.999L232.812 93.4844Z" fill="white"/>
<path d="M24 127.484H26.34L29.512 138.43L32.814 127.484H34.686L37.78 138.43L40.978 127.484H43.188L38.95 141.082H36.558L33.724 130.89L30.552 141.082H28.186L24 127.484Z" fill="white"/>
<path d="M49.5553 141.316C48.9313 141.316 48.3419 141.238 47.7873 141.082C47.2326 140.926 46.7473 140.683 46.3313 140.354C45.9326 140.025 45.6119 139.609 45.3693 139.106C45.1439 138.603 45.0312 138.005 45.0312 137.312C45.0312 136.532 45.2219 135.873 45.6033 135.336C45.9846 134.799 46.4873 134.365 47.1113 134.036C47.7526 133.707 48.4805 133.473 49.2952 133.334C50.1272 133.178 50.9766 133.1 51.8433 133.1H53.7933V132.112C53.7933 131.02 53.5679 130.24 53.1173 129.772C52.6666 129.287 51.9213 129.044 50.8813 129.044C49.0093 129.044 47.9692 129.859 47.7612 131.488H45.6033C45.6726 130.708 45.8633 130.049 46.1753 129.512C46.5046 128.975 46.9119 128.541 47.3973 128.212C47.8999 127.865 48.4546 127.623 49.0613 127.484C49.6853 127.328 50.3266 127.25 50.9853 127.25C51.6266 127.25 52.2506 127.328 52.8573 127.484C53.4639 127.623 53.9926 127.883 54.4433 128.264C54.8939 128.628 55.2579 129.122 55.5353 129.746C55.8126 130.37 55.9513 131.159 55.9513 132.112V141.082H53.7933V139.366C53.2906 140.007 52.7099 140.493 52.0513 140.822C51.3926 141.151 50.5606 141.316 49.5553 141.316ZM49.7633 139.6C50.3353 139.6 50.8639 139.531 51.3493 139.392C51.8519 139.236 52.2766 139.019 52.6233 138.742C52.9873 138.465 53.2733 138.127 53.4813 137.728C53.6893 137.312 53.7933 136.844 53.7933 136.324V134.634H51.9212C51.2452 134.634 50.6126 134.686 50.0233 134.79C49.4513 134.877 48.9486 135.024 48.5153 135.232C48.0993 135.44 47.7699 135.717 47.5273 136.064C47.3019 136.393 47.1893 136.809 47.1893 137.312C47.1893 138.023 47.3798 138.586 47.7612 139.002C48.1425 139.401 48.8099 139.6 49.7633 139.6Z" fill="white"/>
<path d="M58.5801 127.484H60.9201L64.9501 138.898L68.9281 127.484H71.1641L66.2761 141.082H63.5201L58.5801 127.484Z" fill="white"/>
<path d="M79.4911 141.316C78.5204 141.316 77.6364 141.151 76.8391 140.822C76.0418 140.493 75.3484 140.033 74.7591 139.444C74.1698 138.837 73.7104 138.109 73.3811 137.26C73.0691 136.411 72.9131 135.466 72.9131 134.426V134.218C72.9131 133.195 73.0691 132.259 73.3811 131.41C73.6931 130.543 74.1264 129.807 74.6811 129.2C75.2531 128.576 75.9291 128.099 76.7091 127.77C77.4891 127.423 78.3471 127.25 79.2831 127.25C80.0631 127.25 80.8171 127.38 81.5451 127.64C82.2904 127.883 82.9491 128.273 83.5211 128.81C84.0931 129.347 84.5438 130.049 84.8731 130.916C85.2198 131.765 85.3931 132.797 85.3931 134.01V134.712H75.1491C75.2011 136.272 75.5911 137.468 76.3191 138.3C77.0471 139.115 78.1131 139.522 79.5171 139.522C81.6491 139.522 82.8538 138.733 83.1311 137.156H85.2891C85.0464 138.525 84.4051 139.565 83.3651 140.276C82.3251 140.969 81.0338 141.316 79.4911 141.316ZM83.1831 132.97C83.0791 131.566 82.6804 130.561 81.9871 129.954C81.3111 129.347 80.4098 129.044 79.2831 129.044C78.1738 129.044 77.2638 129.399 76.5531 130.11C75.8598 130.803 75.4178 131.757 75.2271 132.97H83.1831Z" fill="white"/>
<path d="M101.558 139.522C102.234 139.522 102.849 139.401 103.404 139.158C103.958 138.915 104.426 138.569 104.808 138.118C105.189 137.667 105.484 137.13 105.692 136.506C105.9 135.865 106.004 135.163 106.004 134.4V134.218C106.004 133.438 105.9 132.727 105.692 132.086C105.484 131.445 105.18 130.899 104.782 130.448C104.4 129.997 103.932 129.651 103.378 129.408C102.84 129.165 102.234 129.044 101.558 129.044C100.882 129.044 100.266 129.165 99.712 129.408C99.1573 129.651 98.6893 129.997 98.308 130.448C97.9267 130.899 97.632 131.445 97.424 132.086C97.216 132.71 97.112 133.412 97.112 134.192V134.4C97.112 135.96 97.502 137.208 98.282 138.144C99.0793 139.063 100.171 139.522 101.558 139.522ZM101.532 141.316C100.561 141.316 99.6687 141.143 98.854 140.796C98.0393 140.449 97.3373 139.973 96.748 139.366C96.1587 138.742 95.6993 138.005 95.37 137.156C95.0407 136.307 94.876 135.388 94.876 134.4V134.192C94.876 133.169 95.0407 132.233 95.37 131.384C95.7167 130.535 96.1847 129.807 96.774 129.2C97.3633 128.576 98.0653 128.099 98.88 127.77C99.6947 127.423 100.587 127.25 101.558 127.25C102.511 127.25 103.395 127.423 104.21 127.77C105.042 128.099 105.752 128.567 106.342 129.174C106.931 129.781 107.39 130.509 107.72 131.358C108.066 132.207 108.24 133.143 108.24 134.166V134.374C108.24 135.397 108.066 136.341 107.72 137.208C107.39 138.057 106.922 138.785 106.316 139.392C105.726 139.999 105.024 140.475 104.21 140.822C103.395 141.151 102.502 141.316 101.532 141.316Z" fill="white"/>
<path d="M112.379 129.304H110.429V127.484H112.379V125.274C112.379 123.887 112.717 122.813 113.393 122.05C114.069 121.287 115.083 120.906 116.435 120.906C116.782 120.906 117.068 120.932 117.293 120.984C117.518 121.019 117.77 121.079 118.047 121.166V122.986C117.856 122.899 117.622 122.83 117.345 122.778C117.085 122.726 116.808 122.7 116.513 122.7C115.802 122.7 115.291 122.917 114.979 123.35C114.684 123.783 114.537 124.347 114.537 125.04V127.484H117.865V129.304H114.537V141.082H112.379V129.304Z" fill="white"/>
<path d="M133.752 141.316C132.799 141.316 131.915 141.16 131.1 140.848C130.303 140.519 129.601 140.059 128.994 139.47C128.405 138.863 127.937 138.135 127.59 137.286C127.261 136.437 127.096 135.483 127.096 134.426V134.218C127.096 133.178 127.27 132.233 127.616 131.384C127.963 130.517 128.431 129.781 129.02 129.174C129.627 128.567 130.329 128.099 131.126 127.77C131.924 127.423 132.782 127.25 133.7 127.25C134.411 127.25 135.096 127.337 135.754 127.51C136.43 127.683 137.028 127.961 137.548 128.342C138.086 128.706 138.536 129.191 138.9 129.798C139.264 130.405 139.498 131.141 139.602 132.008H137.47C137.297 130.933 136.855 130.171 136.144 129.72C135.451 129.269 134.636 129.044 133.7 129.044C133.076 129.044 132.496 129.165 131.958 129.408C131.438 129.651 130.979 129.997 130.58 130.448C130.199 130.881 129.896 131.419 129.67 132.06C129.445 132.701 129.332 133.421 129.332 134.218V134.426C129.332 136.107 129.74 137.381 130.554 138.248C131.386 139.097 132.461 139.522 133.778 139.522C134.264 139.522 134.723 139.453 135.156 139.314C135.607 139.175 136.006 138.967 136.352 138.69C136.716 138.413 137.011 138.066 137.236 137.65C137.479 137.234 137.626 136.749 137.678 136.194H139.68C139.611 136.922 139.412 137.607 139.082 138.248C138.77 138.872 138.354 139.409 137.834 139.86C137.314 140.311 136.708 140.666 136.014 140.926C135.321 141.186 134.567 141.316 133.752 141.316Z" fill="white"/>
<path d="M143.243 127.484H145.401V129.928C145.609 129.547 145.843 129.2 146.103 128.888C146.38 128.559 146.692 128.281 147.039 128.056C147.386 127.813 147.793 127.623 148.261 127.484C148.729 127.345 149.266 127.267 149.873 127.25V129.278C149.197 129.313 148.582 129.399 148.027 129.538C147.472 129.677 146.996 129.911 146.597 130.24C146.216 130.569 145.921 131.011 145.713 131.566C145.505 132.103 145.401 132.788 145.401 133.62V141.082H143.243V127.484Z" fill="white"/>
<path d="M157.246 139.678L151.916 127.484H154.23L158.39 137.234L162.16 127.484H164.37L156.856 145.814H154.672L157.246 139.678Z" fill="white"/>
<path d="M167.517 127.484H169.675V129.772C169.865 129.443 170.117 129.131 170.429 128.836C170.758 128.524 171.122 128.255 171.521 128.03C171.919 127.787 172.353 127.597 172.821 127.458C173.289 127.319 173.774 127.25 174.277 127.25C175.161 127.25 175.984 127.406 176.747 127.718C177.509 128.03 178.159 128.481 178.697 129.07C179.251 129.659 179.685 130.379 179.997 131.228C180.309 132.077 180.465 133.031 180.465 134.088V134.296C180.465 135.336 180.317 136.289 180.023 137.156C179.728 138.005 179.312 138.742 178.775 139.366C178.237 139.99 177.587 140.475 176.825 140.822C176.062 141.151 175.213 141.316 174.277 141.316C173.15 141.316 172.197 141.073 171.417 140.588C170.654 140.103 170.073 139.522 169.675 138.846V145.814H167.517V127.484ZM174.069 139.522C175.421 139.522 176.452 139.089 177.163 138.222C177.873 137.338 178.229 136.064 178.229 134.4V134.192C178.229 133.343 178.116 132.597 177.891 131.956C177.665 131.297 177.362 130.76 176.981 130.344C176.617 129.911 176.175 129.59 175.655 129.382C175.152 129.157 174.615 129.044 174.043 129.044C173.419 129.044 172.829 129.148 172.275 129.356C171.737 129.564 171.269 129.885 170.871 130.318C170.472 130.734 170.16 131.271 169.935 131.93C169.709 132.571 169.597 133.325 169.597 134.192V134.4C169.597 135.267 169.701 136.021 169.909 136.662C170.134 137.303 170.437 137.841 170.819 138.274C171.217 138.69 171.694 139.002 172.249 139.21C172.803 139.418 173.41 139.522 174.069 139.522Z" fill="white"/>
<path d="M188.256 141.264C187.008 141.264 186.081 140.935 185.474 140.276C184.885 139.617 184.59 138.751 184.59 137.676V129.304H182.64V127.484H184.59V124.39H186.748V127.484H189.92V129.304H186.748V137.468C186.748 138.785 187.311 139.444 188.438 139.444C188.785 139.444 189.088 139.418 189.348 139.366C189.608 139.314 189.859 139.245 190.102 139.158V140.978C189.877 141.065 189.625 141.134 189.348 141.186C189.071 141.238 188.707 141.264 188.256 141.264Z" fill="white"/>
<path d="M199.337 139.522C200.013 139.522 200.628 139.401 201.183 139.158C201.738 138.915 202.206 138.569 202.587 138.118C202.968 137.667 203.263 137.13 203.471 136.506C203.679 135.865 203.783 135.163 203.783 134.4V134.218C203.783 133.438 203.679 132.727 203.471 132.086C203.263 131.445 202.96 130.899 202.561 130.448C202.18 129.997 201.712 129.651 201.157 129.408C200.62 129.165 200.013 129.044 199.337 129.044C198.661 129.044 198.046 129.165 197.491 129.408C196.936 129.651 196.468 129.997 196.087 130.448C195.706 130.899 195.411 131.445 195.203 132.086C194.995 132.71 194.891 133.412 194.891 134.192V134.4C194.891 135.96 195.281 137.208 196.061 138.144C196.858 139.063 197.95 139.522 199.337 139.522ZM199.311 141.316C198.34 141.316 197.448 141.143 196.633 140.796C195.818 140.449 195.116 139.973 194.527 139.366C193.938 138.742 193.478 138.005 193.149 137.156C192.82 136.307 192.655 135.388 192.655 134.4V134.192C192.655 133.169 192.82 132.233 193.149 131.384C193.496 130.535 193.964 129.807 194.553 129.2C195.142 128.576 195.844 128.099 196.659 127.77C197.474 127.423 198.366 127.25 199.337 127.25C200.29 127.25 201.174 127.423 201.989 127.77C202.821 128.099 203.532 128.567 204.121 129.174C204.71 129.781 205.17 130.509 205.499 131.358C205.846 132.207 206.019 133.143 206.019 134.166V134.374C206.019 135.397 205.846 136.341 205.499 137.208C205.17 138.057 204.702 138.785 204.095 139.392C203.506 139.999 202.804 140.475 201.989 140.822C201.174 141.151 200.282 141.316 199.311 141.316Z" fill="white"/>
</g>
<g opacity="0.6">
<path d="M387.611 88.4924H389.873V96.9164H399.649V88.4924H401.911V107.082H399.649V98.8144H389.873V107.082H387.611V88.4924Z" fill="white"/>
<path d="M406.804 93.4844H408.962V107.082H406.804V93.4844ZM407.844 90.6504C407.446 90.6504 407.108 90.5117 406.83 90.2344C406.553 89.9571 406.414 89.6191 406.414 89.2204C406.414 88.8217 406.553 88.4837 406.83 88.2064C407.108 87.9291 407.446 87.7904 407.844 87.7904C408.243 87.7904 408.581 87.9291 408.858 88.2064C409.136 88.4837 409.274 88.8217 409.274 89.2204C409.274 89.6191 409.136 89.9571 408.858 90.2344C408.581 90.5117 408.243 90.6504 407.844 90.6504Z" fill="white"/>
<path d="M419.118 112.048C418.113 112.048 417.237 111.935 416.492 111.71C415.764 111.485 415.149 111.181 414.646 110.8C414.161 110.436 413.779 109.994 413.502 109.474C413.225 108.971 413.043 108.434 412.956 107.862H415.166C415.478 109.439 416.787 110.228 419.092 110.228C420.427 110.228 421.484 109.89 422.264 109.214C423.061 108.555 423.46 107.498 423.46 106.042V104.066C423.269 104.395 423.009 104.716 422.68 105.028C422.368 105.34 422.004 105.617 421.588 105.86C421.189 106.085 420.756 106.276 420.288 106.432C419.82 106.571 419.343 106.64 418.858 106.64C417.974 106.64 417.151 106.484 416.388 106.172C415.625 105.843 414.967 105.392 414.412 104.82C413.875 104.248 413.45 103.572 413.138 102.792C412.826 101.995 412.67 101.128 412.67 100.192V100.01C412.67 99.0917 412.826 98.2251 413.138 97.4104C413.45 96.5784 413.883 95.8591 414.438 95.2524C414.993 94.6284 415.66 94.1431 416.44 93.7964C417.22 93.4324 418.078 93.2504 419.014 93.2504C420.158 93.2504 421.085 93.4931 421.796 93.9784C422.507 94.4464 423.061 95.0097 423.46 95.6684V93.4844H425.618V106.172C425.618 107.16 425.453 108.018 425.124 108.746C424.795 109.491 424.344 110.107 423.772 110.592C423.2 111.077 422.515 111.441 421.718 111.684C420.938 111.927 420.071 112.048 419.118 112.048ZM419.092 104.846C419.716 104.846 420.297 104.742 420.834 104.534C421.389 104.309 421.865 103.997 422.264 103.598C422.663 103.182 422.975 102.679 423.2 102.09C423.425 101.483 423.538 100.799 423.538 100.036V99.8544C423.538 98.3291 423.148 97.1504 422.368 96.3184C421.605 95.4691 420.557 95.0444 419.222 95.0444C418.546 95.0444 417.939 95.1657 417.402 95.4084C416.865 95.6511 416.414 95.9891 416.05 96.4224C415.686 96.8384 415.4 97.3497 415.192 97.9564C415.001 98.5457 414.906 99.1957 414.906 99.9064V100.114C414.906 100.86 415.019 101.527 415.244 102.116C415.469 102.688 415.764 103.182 416.128 103.598C416.509 103.997 416.951 104.309 417.454 104.534C417.974 104.742 418.52 104.846 419.092 104.846Z" fill="white"/>
<path d="M430.289 86.9844H432.447V95.6424C432.759 95.0011 433.279 94.4464 434.007 93.9784C434.753 93.4931 435.689 93.2504 436.815 93.2504C437.509 93.2504 438.15 93.3544 438.739 93.5624C439.329 93.7531 439.831 94.0737 440.247 94.5244C440.681 94.9577 441.01 95.5211 441.235 96.2144C441.478 96.9077 441.599 97.7484 441.599 98.7364V107.082H439.441V98.5804C439.441 97.3844 439.181 96.5091 438.661 95.9544C438.141 95.3997 437.335 95.1224 436.243 95.1224C435.741 95.1224 435.255 95.2004 434.787 95.3564C434.337 95.5124 433.938 95.7464 433.591 96.0584C433.245 96.3704 432.967 96.7604 432.759 97.2284C432.551 97.6964 432.447 98.2337 432.447 98.8404V107.082H430.289V86.9844Z" fill="white"/>
<path d="M445.535 98.9183H451.099V100.946H445.535V98.9183Z" fill="white"/>
<path d="M464.924 104.742C464.733 105.071 464.473 105.392 464.144 105.704C463.814 106.016 463.442 106.293 463.026 106.536C462.627 106.761 462.185 106.943 461.7 107.082C461.232 107.238 460.755 107.316 460.27 107.316C459.386 107.316 458.562 107.169 457.8 106.874C457.054 106.562 456.404 106.12 455.85 105.548C455.312 104.959 454.888 104.248 454.576 103.416C454.281 102.567 454.134 101.613 454.134 100.556V100.348C454.134 99.3084 454.29 98.3551 454.602 97.4884C454.914 96.6217 455.347 95.8764 455.902 95.2524C456.456 94.6111 457.124 94.1171 457.904 93.7704C458.684 93.4237 459.542 93.2504 460.478 93.2504C461.622 93.2504 462.549 93.4931 463.26 93.9784C463.97 94.4464 464.525 95.0097 464.924 95.6684V93.4844H467.082V111.814H464.924V104.742ZM460.504 105.522C461.128 105.522 461.717 105.418 462.272 105.21C462.826 105.002 463.303 104.69 463.702 104.274C464.1 103.841 464.412 103.303 464.638 102.662C464.88 102.003 465.002 101.241 465.002 100.374V100.166C465.002 98.4157 464.612 97.1244 463.832 96.2924C463.069 95.4604 462.02 95.0444 460.686 95.0444C459.334 95.0444 458.276 95.4951 457.514 96.3964C456.751 97.2977 456.37 98.5804 456.37 100.244V100.452C456.37 101.319 456.474 102.073 456.682 102.714C456.907 103.338 457.202 103.858 457.566 104.274C457.947 104.69 458.389 105.002 458.892 105.21C459.394 105.418 459.932 105.522 460.504 105.522Z" fill="white"/>
<path d="M476.354 107.316C475.678 107.316 475.046 107.221 474.456 107.03C473.884 106.839 473.39 106.536 472.974 106.12C472.558 105.687 472.229 105.141 471.986 104.482C471.744 103.823 471.622 103.026 471.622 102.09V93.4844H473.78V101.986C473.78 103.182 474.032 104.057 474.534 104.612C475.054 105.167 475.852 105.444 476.926 105.444C477.412 105.444 477.88 105.366 478.33 105.21C478.781 105.054 479.18 104.82 479.526 104.508C479.873 104.196 480.15 103.806 480.358 103.338C480.566 102.87 480.67 102.333 480.67 101.726V93.4844H482.828V107.082H480.67V104.924C480.358 105.565 479.83 106.129 479.084 106.614C478.356 107.082 477.446 107.316 476.354 107.316Z" fill="white"/>
<path d="M490.926 107.316C490.302 107.316 489.713 107.238 489.158 107.082C488.603 106.926 488.118 106.683 487.702 106.354C487.303 106.025 486.983 105.609 486.74 105.106C486.515 104.603 486.402 104.005 486.402 103.312C486.402 102.532 486.593 101.873 486.974 101.336C487.355 100.799 487.858 100.366 488.482 100.036C489.123 99.7071 489.851 99.4731 490.666 99.3344C491.498 99.1784 492.347 99.1004 493.214 99.1004H495.164V98.1124C495.164 97.0204 494.939 96.2404 494.488 95.7724C494.037 95.2871 493.292 95.0444 492.252 95.0444C490.38 95.0444 489.34 95.8591 489.132 97.4884H486.974C487.043 96.7084 487.234 96.0497 487.546 95.5124C487.875 94.9751 488.283 94.5417 488.768 94.2124C489.271 93.8657 489.825 93.6231 490.432 93.4844C491.056 93.3284 491.697 93.2504 492.356 93.2504C492.997 93.2504 493.621 93.3284 494.228 93.4844C494.835 93.6231 495.363 93.8831 495.814 94.2644C496.265 94.6284 496.629 95.1224 496.906 95.7464C497.183 96.3704 497.322 97.1591 497.322 98.1124V107.082H495.164V105.366C494.661 106.007 494.081 106.493 493.422 106.822C492.763 107.151 491.931 107.316 490.926 107.316ZM491.134 105.6C491.706 105.6 492.235 105.531 492.72 105.392C493.223 105.236 493.647 105.019 493.994 104.742C494.358 104.465 494.644 104.127 494.852 103.728C495.06 103.312 495.164 102.844 495.164 102.324V100.634H493.292C492.616 100.634 491.983 100.686 491.394 100.79C490.822 100.877 490.319 101.024 489.886 101.232C489.47 101.44 489.141 101.717 488.898 102.064C488.673 102.393 488.56 102.809 488.56 103.312C488.56 104.023 488.751 104.586 489.132 105.002C489.513 105.401 490.181 105.6 491.134 105.6Z" fill="white"/>
<path d="M501.918 86.9844H504.102V107.082H501.918V86.9844Z" fill="white"/>
<path d="M508.875 93.4844H511.033V107.082H508.875V93.4844ZM509.915 90.6504C509.516 90.6504 509.178 90.5117 508.901 90.2344C508.623 89.9571 508.485 89.6191 508.485 89.2204C508.485 88.8217 508.623 88.4837 508.901 88.2064C509.178 87.9291 509.516 87.7904 509.915 87.7904C510.313 87.7904 510.651 87.9291 510.929 88.2064C511.206 88.4837 511.345 88.8217 511.345 89.2204C511.345 89.6191 511.206 89.9571 510.929 90.2344C510.651 90.5117 510.313 90.6504 509.915 90.6504Z" fill="white"/>
<path d="M519.888 107.264C518.64 107.264 517.714 106.935 517.107 106.276C516.518 105.617 516.222 104.751 516.222 103.676V95.3044H514.272V93.4844H516.222V90.3904H518.38V93.4844H521.552V95.3044H518.38V103.468C518.38 104.785 518.944 105.444 520.07 105.444C520.417 105.444 520.72 105.418 520.98 105.366C521.24 105.314 521.492 105.245 521.734 105.158V106.978C521.509 107.065 521.258 107.134 520.98 107.186C520.703 107.238 520.339 107.264 519.888 107.264Z" fill="white"/>
<path d="M529.098 105.678L523.768 93.4844H526.082L530.242 103.234L534.012 93.4844H536.222L528.708 111.814H526.524L529.098 105.678Z" fill="white"/>
<path d="M392.577 141.316C391.693 141.316 390.87 141.169 390.107 140.874C389.362 140.562 388.712 140.12 388.157 139.548C387.62 138.959 387.195 138.248 386.883 137.416C386.589 136.567 386.441 135.613 386.441 134.556V134.348C386.441 133.308 386.597 132.355 386.909 131.488C387.221 130.621 387.655 129.876 388.209 129.252C388.764 128.611 389.431 128.117 390.211 127.77C390.991 127.423 391.849 127.25 392.785 127.25C393.929 127.25 394.857 127.493 395.567 127.978C396.278 128.446 396.833 129.009 397.231 129.668V120.984H399.389V141.082H397.231V138.742C397.041 139.071 396.781 139.392 396.451 139.704C396.122 140.016 395.749 140.293 395.333 140.536C394.935 140.761 394.493 140.943 394.007 141.082C393.539 141.238 393.063 141.316 392.577 141.316ZM392.811 139.522C393.435 139.522 394.025 139.418 394.579 139.21C395.134 139.002 395.611 138.69 396.009 138.274C396.408 137.841 396.72 137.303 396.945 136.662C397.188 136.003 397.309 135.241 397.309 134.374V134.166C397.309 132.415 396.919 131.124 396.139 130.292C395.377 129.46 394.328 129.044 392.993 129.044C391.641 129.044 390.584 129.495 389.821 130.396C389.059 131.297 388.677 132.58 388.677 134.244V134.452C388.677 135.319 388.781 136.073 388.989 136.714C389.215 137.338 389.509 137.858 389.873 138.274C390.255 138.69 390.697 139.002 391.199 139.21C391.702 139.418 392.239 139.522 392.811 139.522Z" fill="white"/>
<path d="M409.626 141.316C408.655 141.316 407.771 141.151 406.974 140.822C406.177 140.493 405.483 140.033 404.894 139.444C404.305 138.837 403.845 138.109 403.516 137.26C403.204 136.411 403.048 135.466 403.048 134.426V134.218C403.048 133.195 403.204 132.259 403.516 131.41C403.828 130.543 404.261 129.807 404.816 129.2C405.388 128.576 406.064 128.099 406.844 127.77C407.624 127.423 408.482 127.25 409.418 127.25C410.198 127.25 410.952 127.38 411.68 127.64C412.425 127.883 413.084 128.273 413.656 128.81C414.228 129.347 414.679 130.049 415.008 130.916C415.355 131.765 415.528 132.797 415.528 134.01V134.712H405.284C405.336 136.272 405.726 137.468 406.454 138.3C407.182 139.115 408.248 139.522 409.652 139.522C411.784 139.522 412.989 138.733 413.266 137.156H415.424C415.181 138.525 414.54 139.565 413.5 140.276C412.46 140.969 411.169 141.316 409.626 141.316ZM413.318 132.97C413.214 131.566 412.815 130.561 412.122 129.954C411.446 129.347 410.545 129.044 409.418 129.044C408.309 129.044 407.399 129.399 406.688 130.11C405.995 130.803 405.553 131.757 405.362 132.97H413.318Z" fill="white"/>
<path d="M423.482 141.316C421.853 141.316 420.57 140.935 419.634 140.172C418.715 139.392 418.221 138.3 418.152 136.896H420.258C420.345 137.711 420.622 138.352 421.09 138.82C421.575 139.288 422.364 139.522 423.456 139.522C424.496 139.522 425.25 139.349 425.718 139.002C426.186 138.638 426.42 138.092 426.42 137.364C426.42 136.653 426.151 136.142 425.614 135.83C425.094 135.518 424.305 135.267 423.248 135.076C422.364 134.92 421.619 134.738 421.012 134.53C420.405 134.305 419.92 134.036 419.556 133.724C419.192 133.412 418.923 133.039 418.75 132.606C418.594 132.173 418.516 131.661 418.516 131.072C418.516 130.448 418.655 129.902 418.932 129.434C419.209 128.949 419.565 128.55 419.998 128.238C420.449 127.909 420.943 127.666 421.48 127.51C422.035 127.337 422.581 127.25 423.118 127.25C423.725 127.25 424.305 127.319 424.86 127.458C425.415 127.579 425.909 127.796 426.342 128.108C426.793 128.42 427.165 128.827 427.46 129.33C427.755 129.833 427.945 130.448 428.032 131.176H425.952C425.796 130.431 425.493 129.893 425.042 129.564C424.609 129.217 423.959 129.044 423.092 129.044C422.312 129.044 421.688 129.226 421.22 129.59C420.752 129.937 420.518 130.405 420.518 130.994C420.518 131.306 420.561 131.575 420.648 131.8C420.752 132.008 420.925 132.199 421.168 132.372C421.411 132.528 421.731 132.675 422.13 132.814C422.546 132.935 423.066 133.048 423.69 133.152C424.383 133.291 425.025 133.447 425.614 133.62C426.203 133.776 426.706 134.001 427.122 134.296C427.555 134.573 427.885 134.946 428.11 135.414C428.353 135.865 428.474 136.454 428.474 137.182C428.474 138.43 428.058 139.435 427.226 140.198C426.394 140.943 425.146 141.316 423.482 141.316Z" fill="white"/>
<path d="M432.119 127.484H434.277V141.082H432.119V127.484ZM433.159 124.65C432.76 124.65 432.422 124.511 432.145 124.234C431.867 123.957 431.729 123.619 431.729 123.22C431.729 122.821 431.867 122.483 432.145 122.206C432.422 121.929 432.76 121.79 433.159 121.79C433.557 121.79 433.895 121.929 434.173 122.206C434.45 122.483 434.589 122.821 434.589 123.22C434.589 123.619 434.45 123.957 434.173 124.234C433.895 124.511 433.557 124.65 433.159 124.65Z" fill="white"/>
<path d="M444.432 146.048C443.427 146.048 442.552 145.935 441.806 145.71C441.078 145.485 440.463 145.181 439.96 144.8C439.475 144.436 439.094 143.994 438.816 143.474C438.539 142.971 438.357 142.434 438.27 141.862H440.48C440.792 143.439 442.101 144.228 444.406 144.228C445.741 144.228 446.798 143.89 447.578 143.214C448.376 142.555 448.774 141.498 448.774 140.042V138.066C448.584 138.395 448.324 138.716 447.994 139.028C447.682 139.34 447.318 139.617 446.902 139.86C446.504 140.085 446.07 140.276 445.602 140.432C445.134 140.571 444.658 140.64 444.172 140.64C443.288 140.64 442.465 140.484 441.702 140.172C440.94 139.843 440.281 139.392 439.726 138.82C439.189 138.248 438.764 137.572 438.452 136.792C438.14 135.995 437.984 135.128 437.984 134.192V134.01C437.984 133.091 438.14 132.225 438.452 131.41C438.764 130.578 439.198 129.859 439.752 129.252C440.307 128.628 440.974 128.143 441.754 127.796C442.534 127.432 443.392 127.25 444.328 127.25C445.472 127.25 446.4 127.493 447.11 127.978C447.821 128.446 448.376 129.009 448.774 129.668V127.484H450.932V140.172C450.932 141.16 450.768 142.018 450.438 142.746C450.109 143.491 449.658 144.107 449.086 144.592C448.514 145.077 447.83 145.441 447.032 145.684C446.252 145.927 445.386 146.048 444.432 146.048ZM444.406 138.846C445.03 138.846 445.611 138.742 446.148 138.534C446.703 138.309 447.18 137.997 447.578 137.598C447.977 137.182 448.289 136.679 448.514 136.09C448.74 135.483 448.852 134.799 448.852 134.036V133.854C448.852 132.329 448.462 131.15 447.682 130.318C446.92 129.469 445.871 129.044 444.536 129.044C443.86 129.044 443.254 129.165 442.716 129.408C442.179 129.651 441.728 129.989 441.364 130.422C441 130.838 440.714 131.349 440.506 131.956C440.316 132.545 440.22 133.195 440.22 133.906V134.114C440.22 134.859 440.333 135.527 440.558 136.116C440.784 136.688 441.078 137.182 441.442 137.598C441.824 137.997 442.266 138.309 442.768 138.534C443.288 138.742 443.834 138.846 444.406 138.846Z" fill="white"/>
<path d="M455.604 127.484H457.762V129.642C458.074 129.001 458.594 128.446 459.322 127.978C460.067 127.493 461.003 127.25 462.13 127.25C462.823 127.25 463.465 127.354 464.054 127.562C464.643 127.753 465.146 128.073 465.562 128.524C465.995 128.957 466.325 129.521 466.55 130.214C466.793 130.907 466.914 131.748 466.914 132.736V141.082H464.757V132.58C464.757 131.384 464.497 130.509 463.977 129.954C463.457 129.399 462.651 129.122 461.559 129.122C461.056 129.122 460.57 129.2 460.102 129.356C459.651 129.512 459.253 129.746 458.906 130.058C458.559 130.37 458.282 130.76 458.074 131.228C457.866 131.696 457.762 132.233 457.762 132.84V141.082H455.604V127.484Z" fill="white"/>
<path d="M483.997 141.316C483.044 141.316 482.16 141.16 481.345 140.848C480.548 140.519 479.846 140.059 479.239 139.47C478.65 138.863 478.182 138.135 477.835 137.286C477.506 136.437 477.341 135.483 477.341 134.426V134.218C477.341 133.178 477.514 132.233 477.861 131.384C478.208 130.517 478.676 129.781 479.265 129.174C479.872 128.567 480.574 128.099 481.371 127.77C482.168 127.423 483.026 127.25 483.945 127.25C484.656 127.25 485.34 127.337 485.999 127.51C486.675 127.683 487.273 127.961 487.793 128.342C488.33 128.706 488.781 129.191 489.145 129.798C489.509 130.405 489.743 131.141 489.847 132.008H487.715C487.542 130.933 487.1 130.171 486.389 129.72C485.696 129.269 484.881 129.044 483.945 129.044C483.321 129.044 482.74 129.165 482.203 129.408C481.683 129.651 481.224 129.997 480.825 130.448C480.444 130.881 480.14 131.419 479.915 132.06C479.69 132.701 479.577 133.421 479.577 134.218V134.426C479.577 136.107 479.984 137.381 480.799 138.248C481.631 139.097 482.706 139.522 484.023 139.522C484.508 139.522 484.968 139.453 485.401 139.314C485.852 139.175 486.25 138.967 486.597 138.69C486.961 138.413 487.256 138.066 487.481 137.65C487.724 137.234 487.871 136.749 487.923 136.194H489.925C489.856 136.922 489.656 137.607 489.327 138.248C489.015 138.872 488.599 139.409 488.079 139.86C487.559 140.311 486.952 140.666 486.259 140.926C485.566 141.186 484.812 141.316 483.997 141.316Z" fill="white"/>
<path d="M493.487 127.484H495.645V129.928C495.853 129.547 496.087 129.2 496.347 128.888C496.624 128.559 496.936 128.281 497.283 128.056C497.629 127.813 498.037 127.623 498.505 127.484C498.973 127.345 499.51 127.267 500.117 127.25V129.278C499.441 129.313 498.825 129.399 498.271 129.538C497.716 129.677 497.239 129.911 496.841 130.24C496.459 130.569 496.165 131.011 495.957 131.566C495.749 132.103 495.645 132.788 495.645 133.62V141.082H493.487V127.484Z" fill="white"/>
<path d="M506.846 141.316C506.222 141.316 505.632 141.238 505.078 141.082C504.523 140.926 504.038 140.683 503.622 140.354C503.223 140.025 502.902 139.609 502.66 139.106C502.434 138.603 502.322 138.005 502.322 137.312C502.322 136.532 502.512 135.873 502.894 135.336C503.275 134.799 503.778 134.365 504.402 134.036C505.043 133.707 505.771 133.473 506.586 133.334C507.418 133.178 508.267 133.1 509.134 133.1H511.084V132.112C511.084 131.02 510.858 130.24 510.408 129.772C509.957 129.287 509.212 129.044 508.172 129.044C506.3 129.044 505.26 129.859 505.052 131.488H502.894C502.963 130.708 503.154 130.049 503.466 129.512C503.795 128.975 504.202 128.541 504.688 128.212C505.19 127.865 505.745 127.623 506.352 127.484C506.976 127.328 507.617 127.25 508.276 127.25C508.917 127.25 509.541 127.328 510.148 127.484C510.754 127.623 511.283 127.883 511.734 128.264C512.184 128.628 512.548 129.122 512.826 129.746C513.103 130.37 513.242 131.159 513.242 132.112V141.082H511.084V139.366C510.581 140.007 510 140.493 509.342 140.822C508.683 141.151 507.851 141.316 506.846 141.316ZM507.054 139.6C507.626 139.6 508.154 139.531 508.64 139.392C509.142 139.236 509.567 139.019 509.914 138.742C510.278 138.465 510.564 138.127 510.772 137.728C510.98 137.312 511.084 136.844 511.084 136.324V134.634H509.212C508.536 134.634 507.903 134.686 507.314 134.79C506.742 134.877 506.239 135.024 505.806 135.232C505.39 135.44 505.06 135.717 504.818 136.064C504.592 136.393 504.48 136.809 504.48 137.312C504.48 138.023 504.67 138.586 505.052 139.002C505.433 139.401 506.1 139.6 507.054 139.6Z" fill="white"/>
<path d="M518.254 129.304H516.304V127.484H518.254V125.274C518.254 123.887 518.592 122.813 519.268 122.05C519.944 121.287 520.958 120.906 522.31 120.906C522.657 120.906 522.943 120.932 523.168 120.984C523.394 121.019 523.645 121.079 523.922 121.166V122.986C523.732 122.899 523.498 122.83 523.22 122.778C522.96 122.726 522.683 122.7 522.388 122.7C521.678 122.7 521.166 122.917 520.854 123.35C520.56 123.783 520.412 124.347 520.412 125.04V127.484H523.74V129.304H520.412V141.082H518.254V129.304Z" fill="white"/>
<path d="M531.365 141.264C530.117 141.264 529.189 140.935 528.583 140.276C527.993 139.617 527.699 138.751 527.699 137.676V129.304H525.749V127.484H527.699V124.39H529.857V127.484H533.029V129.304H529.857V137.468C529.857 138.785 530.42 139.444 531.547 139.444C531.893 139.444 532.197 139.418 532.457 139.366C532.717 139.314 532.968 139.245 533.211 139.158V140.978C532.985 141.065 532.734 141.134 532.457 141.186C532.179 141.238 531.815 141.264 531.365 141.264Z" fill="white"/>
</g>
</g>
<defs>
<linearGradient id="paint0_linear_27_5983" x1="77" y1="115.984" x2="543" y2="109.984" gradientUnits="userSpaceOnUse">
<stop stop-color="white"/>
<stop offset="1" stop-color="white" stop-opacity="0"/>
</linearGradient>
<clipPath id="clip0_27_5983">
<rect width="594" height="217" fill="white" transform="translate(0 0.984375)"/>
</clipPath>
</defs>
</svg>
