<svg width="483" height="146" viewBox="0 0 483 146" fill="none" xmlns="http://www.w3.org/2000/svg">
<g opacity="0.6">
<mask id="mask0_1241_32" style="mask-type:alpha" maskUnits="userSpaceOnUse" x="-1" y="0" width="484" height="148">
<path d="M481 21.6746V125.897C481 136.763 470.398 145.571 457.32 145.571L24.68 145.571C11.6023 145.571 1 136.763 1 125.897V21.6746C1 10.8086 11.6023 2 24.68 2L457.32 2C470.398 2 481 10.8086 481 21.6746Z" fill="#0A090F" stroke="url(#paint0_linear_1241_32)" stroke-width="3.19048"/>
</mask>
<g mask="url(#mask0_1241_32)">
<path d="M188.36 56.509C187.079 59.61 185.508 60.9084 184.516 61.0723C183.631 61.2235 181.741 60.6184 179.285 58.4124C177.653 56.2316 176.036 53.9373 174.404 51.6053C170.445 45.7613 166.07 40.1166 161.302 34.7009C121.768 -8.15878 68.8424 -30.8743 4.00526 -32.7526C-7.7541 -33.0929 -11.3534 -36.1435 -11.3842 -45.8248V-48.3459C-11.4149 -59.5903 -11.4456 -71.2129 -11.3535 -82.6338C-11.3087 -87.3105 -9.93521 -90.7645 -7.66322 -92.5671C-5.38994 -94.3697 -1.65361 -95.2143 3.45616 -95.0757C79.6878 -92.9326 144.236 -70.318 195.772 -27.723C202.981 -21.7647 209.927 -15.4197 216.607 -8.68825C220.115 -5.15862 220.314 -3.22995 217.599 0.728287C205.732 18.5127 195.943 37.1906 188.36 56.509Z" fill="url(#paint1_linear_1241_32)"/>
<path d="M307.266 -48.144L303.438 -45.5346C295.469 -40.3197 287.827 -34.7701 280.545 -28.9076C229.206 15.2631 202.163 68.3965 200.134 129.017C199.997 133.695 201.003 136.896 203.277 138.825L203.368 138.901C205.687 140.817 209.637 141.762 215.433 141.788L215.845 141.8C230.853 141.851 246.441 141.876 261.601 141.8C270.89 141.687 275.176 138.144 275.466 130.342C277.052 80.2459 301.12 38.3191 346.984 5.68269C358.202 -2.1086 370.403 -8.87903 383.376 -14.5117C388.363 -16.7429 389.202 -18.1171 389.034 -19.9197C388.866 -21.7223 387.814 -22.1131 382.705 -23.5376C358.798 -30.1194 335.658 -38.4688 313.565 -48.4844C310.546 -49.871 309.432 -49.6063 307.266 -48.144Z" fill="url(#paint2_linear_1241_32)"/>
<path d="M142.512 141.951C147.372 141.935 152.237 141.931 157.109 141.94C158.868 142.001 160.622 141.761 162.263 141.233C163.904 140.707 165.394 139.904 166.641 138.876C168.928 136.834 169.966 134.06 169.874 129.774C169.874 94.4783 151.481 59.2577 119.984 33.2268C88.4125 7.13278 45.8883 -7.84293 3.2733 -7.76729C-7.29694 -7.77987 -11.2624 -4.50236 -11.3226 4.29646C-11.4608 17.5956 -11.4301 30.6804 -11.2778 43.1854C-11.1241 50.8748 -7.46461 54.102 1.96132 54.5559C55.5895 57.1274 91.0352 86.4484 94.513 131.047C95.0775 138.548 98.9661 141.813 107.6 141.863C119.115 141.977 130.92 142.027 142.512 141.951Z" fill="url(#paint3_linear_1241_32)"/>
<path d="M471.261 -7.80547C433.054 -6.80959 399.224 3.24987 370.779 22.0451C328.865 49.7526 306.948 86.3471 305.62 130.834C305.312 132.317 305.431 133.841 305.969 135.28C306.506 136.72 307.447 138.033 308.714 139.116C309.983 140.198 311.54 141.018 313.264 141.508C314.987 141.998 316.825 142.146 318.632 141.939C335.759 142.128 352.415 142.128 368.186 141.926C376.62 141.813 380.754 138.523 380.815 131.816C381.031 111.277 391.026 91.6352 408.637 77.1421C426.247 62.649 450.054 54.4711 474.906 54.3789C484.454 54.3789 486.605 48.9206 486.666 44.3826C486.855 35.9508 486.851 27.4046 486.848 18.9634V18.9583L486.847 18.9552L486.847 18.9488C486.846 16.5419 486.845 14.1435 486.849 11.7587L486.788 1.901C486.811 0.599856 486.514 -0.691546 485.913 -1.89447C485.313 -3.09736 484.422 -4.18645 483.295 -5.09519C480.58 -7.21296 477.102 -8.01975 471.261 -7.80547Z" fill="url(#paint4_linear_1241_32)"/>
<path d="M420.317 135.144C410.632 124.845 412.905 107.613 425.549 95.9278C437.827 84.57 452.256 80.2335 469.613 82.679L470.01 82.7295L470.528 82.9312C485.506 88.4777 489.563 97.6547 490.356 104.361C491.744 116.349 483.615 130.001 470.574 137.577C452.042 148.355 431.863 147.385 420.317 135.144Z" fill="url(#paint5_linear_1241_32)"/>
<path d="M50.0992 95.9279C37.7293 85.7047 24.887 81.0909 11.968 82.0616C4.92542 82.5414 -1.67041 85.1059 -6.60738 89.284C-11.5456 93.4619 -14.4922 98.9723 -14.9069 104.802C-15.0579 110.103 -13.9008 115.375 -11.5046 120.293C-9.10848 125.212 -5.52322 129.676 -0.970264 133.411C3.58398 137.146 9.01118 140.074 14.9798 142.017C20.9497 143.961 27.3357 144.878 33.7485 144.712C40.7962 144.338 47.4381 141.856 52.4326 137.728C57.4259 133.601 60.4301 128.111 60.8819 122.286C61.417 117.514 60.7334 112.702 58.8761 108.161C57.0176 103.621 54.0288 99.4532 50.0992 95.9279Z" fill="url(#paint6_linear_1241_32)"/>
</g>
</g>
<defs>
<linearGradient id="paint0_linear_1241_32" x1="49.6886" y1="75.5733" x2="463.55" y2="62.1059" gradientUnits="userSpaceOnUse">
<stop stop-color="#D95DB0"/>
<stop offset="1" stop-color="#3344DC"/>
</linearGradient>
<linearGradient id="paint1_linear_1241_32" x1="34.7765" y1="36.853" x2="345.872" y2="276.362" gradientUnits="userSpaceOnUse">
<stop stop-color="#D95DB0"/>
<stop offset="1" stop-color="#3344DC"/>
</linearGradient>
<linearGradient id="paint2_linear_1241_32" x1="34.7762" y1="36.8533" x2="345.872" y2="276.362" gradientUnits="userSpaceOnUse">
<stop stop-color="#D95DB0"/>
<stop offset="1" stop-color="#3344DC"/>
</linearGradient>
<linearGradient id="paint3_linear_1241_32" x1="34.7767" y1="36.8529" x2="345.872" y2="276.362" gradientUnits="userSpaceOnUse">
<stop stop-color="#D95DB0"/>
<stop offset="1" stop-color="#3344DC"/>
</linearGradient>
<linearGradient id="paint4_linear_1241_32" x1="34.7774" y1="36.8528" x2="345.873" y2="276.361" gradientUnits="userSpaceOnUse">
<stop stop-color="#D95DB0"/>
<stop offset="1" stop-color="#3344DC"/>
</linearGradient>
<linearGradient id="paint5_linear_1241_32" x1="34.777" y1="36.853" x2="345.873" y2="276.362" gradientUnits="userSpaceOnUse">
<stop stop-color="#D95DB0"/>
<stop offset="1" stop-color="#3344DC"/>
</linearGradient>
<linearGradient id="paint6_linear_1241_32" x1="34.7776" y1="36.8531" x2="345.873" y2="276.362" gradientUnits="userSpaceOnUse">
<stop stop-color="#D95DB0"/>
<stop offset="1" stop-color="#3344DC"/>
</linearGradient>
</defs>
</svg>
