<svg width="243" height="77" viewBox="0 0 243 77" fill="none" xmlns="http://www.w3.org/2000/svg">
<g clip-path="url(#clip0_27_5973)">
<path fill-rule="evenodd" clip-rule="evenodd" d="M2.04184 37.0477V29.1934H9.36857C12.5665 29.1934 14.366 30.6776 14.366 32.8782V32.936C14.366 35.2739 12.7059 36.6809 10.2608 36.9855V38.4461C13.6474 38.6455 15.4813 40.0333 15.4813 42.3047V42.3604C15.4813 44.8742 13.3086 46.4442 9.88117 46.4442H2.04184V38.4182V37.0477ZM12.4807 37.5346C14.1086 36.8761 15.8802 35.5055 15.8802 32.7923V32.7344C15.8802 29.736 13.2807 27.8228 9.39644 27.8228H0.557617V47.8168H9.82543C14.1387 47.8168 16.9955 45.702 16.9955 42.3604V42.3047C16.9955 39.5336 14.8787 38.163 12.4807 37.5346ZM226.935 47.8168V27.8228H242.018V31.7349H231.306V35.7908H240.731V39.7051H231.306V43.9025H242.159V47.8168H226.935ZM212.738 48.16C206.512 48.16 202.229 43.7889 202.229 37.8756V37.8177C202.229 32.1339 206.656 27.4796 212.712 27.4796C216.31 27.4796 218.48 28.4512 220.567 30.2208L217.796 33.5624C216.254 32.2776 214.882 31.5355 212.569 31.5355C209.369 31.5355 206.827 34.3623 206.827 37.762V37.8177C206.827 41.4746 209.339 44.16 212.885 44.16C214.483 44.16 215.911 43.761 217.024 42.961V40.1041H212.597V36.3056H221.282V44.9878C219.224 46.7315 216.396 48.16 212.738 48.16ZM193.146 47.8168L183.462 35.1067V47.8168H179.122V27.8228H183.177L192.545 40.1319V27.8228H196.889V47.8168H193.146ZM166.612 39.4478L163.952 32.964L161.297 39.4478H166.612ZM161.297 39.4478L157.897 47.8168H153.413L161.981 27.6791H166.039L174.608 47.8168H170.009L166.612 39.4478H161.297ZM144.503 47.8168V39.7888H136.392V47.8168H131.993V27.8228H136.392V35.7351H144.503V27.8228H148.902V47.8168H144.503ZM118.853 48.16C112.968 48.16 108.598 43.6173 108.598 37.8756V37.8177C108.598 32.1339 112.882 27.4796 119.023 27.4796C122.795 27.4796 125.052 28.7365 126.907 30.5639L124.108 33.7918C122.566 32.3913 120.994 31.5355 118.995 31.5355C115.625 31.5355 113.195 34.3345 113.195 37.762V37.8177C113.195 41.2472 115.567 44.1041 118.995 44.1041C121.281 44.1041 122.68 43.1883 124.252 41.7599L127.048 44.5889C124.994 46.7894 122.709 48.16 118.853 48.16ZM90.8565 40.962V47.8168H89.3728V27.8228H90.8565V40.962ZM102.429 27.8228H104.457L95.7167 36.6466L104.828 47.8168H102.887L93.8315 36.6895L102.429 27.8228ZM75.9181 48.16C70.2044 48.16 65.9791 43.6173 65.9791 37.8756V37.8177C65.9791 32.1639 70.2044 27.4796 75.976 27.4796C79.5472 27.4796 81.6877 28.7923 83.7446 30.6775L82.6894 31.7628C80.9456 30.077 78.9445 28.8223 75.9461 28.8223C71.148 28.8223 67.519 32.7344 67.519 37.762V37.8177C67.519 42.8752 71.2059 46.8173 75.976 46.8173C78.8587 46.8173 80.8298 45.7021 82.8588 43.7031L83.8583 44.6747C81.7456 46.7595 79.4614 48.16 75.9181 48.16ZM58.8368 37.8177C58.8368 32.8781 55.2399 28.8223 50.2982 28.8223C45.3544 28.8223 41.8133 32.8202 41.8133 37.762V37.8177C41.8133 42.7615 45.4123 46.8173 50.354 46.8173C55.2956 46.8173 58.8368 42.8173 58.8368 37.8756V37.8177ZM50.2982 48.16C44.2413 48.16 40.2712 43.332 40.2712 37.8756V37.8177C40.2712 32.3634 44.2992 27.4796 50.354 27.4796C56.4109 27.4796 60.3789 32.3076 60.3789 37.762C60.4089 37.7898 60.4089 37.7898 60.3789 37.8177C60.3789 43.2741 56.353 48.16 50.2982 48.16ZM23.1919 47.8168V27.8228H24.6783V46.4442H36.4169V47.8168H23.1919Z" fill="white"/>
</g>
<defs>
<clipPath id="clip0_27_5973">
<rect width="242.365" height="76.1719" fill="white" transform="translate(0.426758 0.359375)"/>
</clipPath>
</defs>
</svg>
